<svg id="logo-full" xmlns="http://www.w3.org/2000/svg" xmlns:xlink="http://www.w3.org/1999/xlink" viewBox="0 0 1500 521.25"><defs><style>.cls-1,.cls-2{fill:none;}.cls-2{stroke:#2e7794;stroke-linecap:round;stroke-width:23.51px;}.cls-2,.cls-3{stroke-miterlimit:10;}.cls-3,.cls-4{fill:#24afc4;}.cls-3{stroke:#24afc4;stroke-width:43.41px;}.cls-5{clip-path:url(#clip-path);}.cls-6{fill:#3c9;}.cls-7{fill:#24292e;}</style><clipPath id="clip-path"><path class="cls-1" d="M351,240.13h52.37l26.58-9.06-7.43-62.14-136-43L182.91,176,171,304.94s35.71,79.74,35.71,80.91,149.31,31.27,149.31,31.27l42.6-39.48,24.63-55.11-19.94-12.9-7.68-21.49-62.8,2.6-19,26.84.58-26.9s-18.76-47.82-18-50.42,4-12.83,4-12.83l33.68,3.9,15.64,7.56Z"/></clipPath></defs><title>logo-full-no-bg</title><g id="Scrubber"><line class="cls-2" x1="35.11" y1="262.68" x2="1455.02" y2="262.68"/><line class="cls-3" x1="115.29" y1="262.68" x2="1374.83" y2="262.68"/><path class="cls-4" d="M1396.44,307.85l-58.14-33.59a14.94,14.94,0,0,1,0-25.87l58.14-33.58a14.92,14.92,0,0,1,22.39,12.93v67.17A15,15,0,0,1,1396.44,307.85Z"/><path class="cls-4" d="M105.44,216.15l58.14,33.59a14.94,14.94,0,0,1,0,25.87L105.44,309.2a14.93,14.93,0,0,1-22.39-12.94V229.09A15,15,0,0,1,105.44,216.15Z"/></g><g id="cliply"><g id="Layer_7" data-name="Layer 7"><g class="cls-5"><path class="cls-6" d="M315.25,381.94c-24.13,0-46.16-5.08-65.48-15.09-19.49-10.1-35-24.34-46-42.34s-16.57-38.65-16.57-61.38,5.57-43.38,16.57-61.37,26.45-32.23,46-42.34c19.33-10,41.36-15.1,65.48-15.1,23.93,0,45.23,5.12,63.3,15.22a93.18,93.18,0,0,1,30.82,27.35,24.14,24.14,0,0,1-8.32,35.17L379,233.9a22.91,22.91,0,0,1-10.79,2.72,24.22,24.22,0,0,1-18.57-8.89c-9-10.77-20.37-16-34.8-16-14.14,0-25.46,4.45-34.61,13.6s-13.6,21.52-13.6,37.8,4.45,28.66,13.6,37.8,20.47,13.61,34.61,13.61c14.61,0,26-5.21,34.86-15.93a24,24,0,0,1,30-5.76L401,304.48a24.2,24.2,0,0,1,12.05,16,23.86,23.86,0,0,1-4,19.31,96.26,96.26,0,0,1-30.46,26.7C360.52,376.75,339.21,381.94,315.25,381.94Z"/><path class="cls-7" d="M315.25,152.45q33.94,0,59.33,14.19a84.56,84.56,0,0,1,28.16,25,16,16,0,0,1-5.54,23.29l-22,11.83a14.52,14.52,0,0,1-6.94,1.76,16.19,16.19,0,0,1-12.33-6q-15.79-18.92-41-18.92-24.37,0-40.36,16t-16,43.55q0,27.57,16,43.55t40.36,16q25.54,0,41.13-18.88a15.86,15.86,0,0,1,19.84-3.8l21.32,11.62A16,16,0,0,1,402.5,335a87.84,87.84,0,0,1-27.92,24.44q-25.36,14.38-59.33,14.38-34.37,0-61.73-14.18t-42.76-39.36q-15.37-25.17-15.38-57.14T210.76,206q15.39-25.18,42.76-39.36t61.73-14.19m0-16.26c-25.43,0-48.72,5.39-69.22,16-20.84,10.8-37.37,26-49.15,45.32s-17.76,41.36-17.76,65.61,6,46.33,17.76,65.62A122.75,122.75,0,0,0,246,374.07c20.48,10.62,43.77,16,69.22,16s48.05-5.55,67.36-16.5a104.33,104.33,0,0,0,33-29A32,32,0,0,0,421,318.72a32.4,32.4,0,0,0-16.09-21.38l-21.32-11.63a32.15,32.15,0,0,0-40.17,7.72c-7.31,8.85-16.39,13-28.59,13-11.87,0-21.31-3.67-28.85-11.22s-11.23-18-11.23-32.06,3.67-24.5,11.22-32,17-11.22,28.86-11.22c12,0,21.11,4.16,28.55,13.08a32.34,32.34,0,0,0,24.82,11.81,31,31,0,0,0,14.64-3.69l22-11.83a32.27,32.27,0,0,0,11.11-47,101.3,101.3,0,0,0-33.48-29.74c-19.3-10.78-41.93-16.25-67.27-16.25Z"/></g></g><rect class="cls-6" x="444.49" y="64.13" width="82.86" height="315.94" rx="24.09"/><path class="cls-7" d="M503.26,72.26a16,16,0,0,1,16,15.95V356a16,16,0,0,1-16,15.95H468.58a16,16,0,0,1-16-15.95V88.21a16,16,0,0,1,16-15.95h34.68m0-16.27H468.58a32.26,32.26,0,0,0-32.22,32.22V356a32.26,32.26,0,0,0,32.22,32.22h34.68A32.26,32.26,0,0,0,535.48,356V88.21A32.26,32.26,0,0,0,503.26,56Z"/><rect class="cls-6" x="569.36" y="147.37" width="74.53" height="232.69" rx="24.09"/><path class="cls-7" d="M619.8,155.5a16,16,0,0,1,16,16V356a16,16,0,0,1-16,15.95H593.44a16,16,0,0,1-16-15.95V171.46a16,16,0,0,1,16-16H619.8m0-16.26H593.44a32.26,32.26,0,0,0-32.22,32.22V356a32.26,32.26,0,0,0,32.22,32.22H619.8A32.26,32.26,0,0,0,652,356V171.46a32.25,32.25,0,0,0-32.22-32.22Z"/><circle class="cls-6" cx="606.62" cy="97.75" r="39.36"/><path class="cls-7" d="M606.62,66.53A31.23,31.23,0,1,1,575.4,97.75a31.23,31.23,0,0,1,31.22-31.22m0-16.27a47.49,47.49,0,1,0,47.49,47.49,47.55,47.55,0,0,0-47.49-47.49Z"/><path class="cls-6" d="M710,455A24.1,24.1,0,0,1,685.9,430.9V171.46A24.11,24.11,0,0,1,710,147.37h26.36A24.12,24.12,0,0,1,757,159.09a120.1,120.1,0,0,1,54.19-12.55c54.61,0,99.54,39,109.27,94.8,1.65,9,1.65,12.32,1.65,21.1v.69c0,32.15-8.69,56.43-28.16,78.7-21.62,25-47.06,36.09-85,36.93-1.84,0-3.61.06-5.34.06-17.88,0-31.32-2.22-43.16-7.4l0,59.47A24.12,24.12,0,0,1,736.37,455Zm97-241.92c-13.78,0-24.73,4.47-33.46,13.65s-13.14,21.65-13.14,37.75,4.3,28.45,13.14,37.75,19.68,13.66,33.46,13.66,24.73-4.47,33.47-13.66c9.45-9.94,14.24-22.64,14.24-37.74S850,236.66,840.5,226.71C831.77,217.53,820.82,213.06,807,213.06Z"/><path class="cls-7" d="M811.2,154.67c51.6,0,92.36,37,101.26,88.06C914,251.33,914,254,914,263.13c0,27-6.25,50.59-26.15,73.35-21.2,24.55-45.19,33.4-79.09,34.15q-2.65.06-5.16.06c-23.85,0-38-4-51.29-13.07l0,73.27a16,16,0,0,1-16,16H710a16,16,0,0,1-16-16V171.46a16,16,0,0,1,16-16h26.36a16,16,0,0,1,16,16c.35-.4.74-.67,1.1-1.05,16.83-10.32,36.61-15.74,57.8-15.74M807,324q24,0,39.36-16.18c10.25-10.79,16.48-25.23,16.48-43.35s-6.23-32.57-16.48-43.36S823,204.93,807,204.93s-29.1,5.39-39.35,16.18-15.38,25.24-15.38,43.35,5.12,32.57,15.38,43.36S791.05,324,807,324m4.17-185.6A129.25,129.25,0,0,0,759.41,149a32.14,32.14,0,0,0-23.07-9.74H710a32.26,32.26,0,0,0-32.22,32.22V430.9A32.26,32.26,0,0,0,710,463.11h26.39a32.25,32.25,0,0,0,32.22-32.22l0-48c10,2.78,21.34,4,35,4,1.78,0,3.63,0,5.51-.06,19.95-.44,35.9-3.43,50.22-9.4,15.34-6.4,28.68-16.32,40.79-30.34,20.84-23.85,30.14-49.77,30.14-84v-.69c0-8.77,0-12.78-1.78-22.57C918,180.13,869.81,138.4,811.2,138.4ZM807,307.74c-11.59,0-20.35-3.54-27.57-11.13s-10.9-18.23-10.9-32.15,3.57-24.43,10.9-32.14,16-11.13,27.57-11.13,20.36,3.54,27.57,11.13c8,8.38,12,19.19,12,32.15s-4,23.76-12,32.14c-7.21,7.59-16,11.13-27.57,11.13Z"/><rect class="cls-6" x="959.68" y="64.13" width="82.86" height="315.94" rx="24.09"/><path class="cls-7" d="M1018.45,72.26a16,16,0,0,1,16,15.95V356a16,16,0,0,1-16,15.95H983.76a16,16,0,0,1-16-15.95V88.21a16,16,0,0,1,16-15.95h34.69m0-16.27H983.76a32.26,32.26,0,0,0-32.21,32.22V356a32.26,32.26,0,0,0,32.21,32.22h34.69A32.26,32.26,0,0,0,1050.67,356V88.21A32.26,32.26,0,0,0,1018.45,56Z"/><path class="cls-6" d="M1188.69,471.59c-21,0-41.42-7.13-58.67-14.09-11.86-4.8-24.29-12.58-37-23.13-6.67-5.56-13.37-13.65-6-27l.56-1,17.2-17.21c.76-.75,1.48-1.51,2.18-2.25,4-4.17,8.48-8.89,15.23-8.89a15.88,15.88,0,0,1,10.22,4.05l.28.22c4.36,3.62,11.68,9.67,19.2,13.49,10.19,5.17,18.77,8.35,32.48,9.28,2.62.18,5.1.27,7.37.27,14.22,0,21.34-3.48,28.83-9.48,5.25-4.2,8.32-10.23,10.1-15.7a100.76,100.76,0,0,1-35.24,6c-4,0-8.18-.16-13.72-.52h-.2l-.2,0c-25.43-2.89-47.74-13.54-66.29-31.64-18.27-17.82-29.52-44.91-31.68-76.28l0-.28V171.45a24.1,24.1,0,0,1,24.08-24.08h26.37a24.11,24.11,0,0,1,24.08,24.09v102.8c1.16,24.8,19.83,37.77,37.72,37.77A37.33,37.33,0,0,0,1223,300.24c8.47-8.75,11.55-19.91,10.27-37.32l0-.29V171.45a24.12,24.12,0,0,1,24.09-24.08h26.36a24.07,24.07,0,0,1,24.09,24.09V348.24c0,40.67-11.38,72.21-33.83,93.77-22.07,21.18-44.93,29.2-84.34,29.57Z"/><path class="cls-7" d="M1283.66,155.5a16,16,0,0,1,16,16V348.24c0,39.42-11.36,68.72-31.34,87.9s-40.69,26.95-78.78,27.31h-.79c-19,0-38.12-6.43-55.63-13.5-14-5.67-26.3-14.76-34.8-21.84-6.54-5.45-8.19-9.37-4.08-16.83l16.39-16.39c4.37-4.37,7.65-8.76,11.66-8.76a7.94,7.94,0,0,1,5,2.18c4.61,3.82,12.49,10.39,21,14.71,11.47,5.81,20.94,9.14,35.61,10.13,2.82.2,5.45.29,7.92.29,15.64,0,24.66-3.84,33.92-11.26C1241,390,1241.34,367,1241.34,367c-18.76,8.65-31.37,11-45.86,11-4.18,0-8.51-.2-13.2-.51a103.18,103.18,0,0,1-61.54-29.39c-15.16-14.79-27-38.88-29.24-71V171.45a16,16,0,0,1,16-15.95h26.36a16,16,0,0,1,16,16v103c1.23,28.16,22.68,45.72,45.86,45.72a45.68,45.68,0,0,0,33.17-14.26c9.24-9.54,14.1-22.3,12.54-43.57V171.45a16,16,0,0,1,16-15.95h26.36m0-16.26H1257.3a32.26,32.26,0,0,0-32.22,32.21v91.47l0,.6c1.37,18.68-3.28,26.19-8,31.07a29.42,29.42,0,0,1-21.49,9.31c-14,0-28.58-10.25-29.59-29.84V171.46a32.2,32.2,0,0,0-32.21-32.22h-26.36a32.25,32.25,0,0,0-32.22,32.21V277.68l0,.56c2.3,33.36,14.41,62.32,34.11,81.54a129.86,129.86,0,0,0,11.68,10.13c-9.57.49-15.78,7-20,11.38-.7.74-1.37,1.45-2,2.11l-16.39,16.39-1.63,1.63-1.11,2c-1.53,2.77-6.19,11.22-3.39,21.35,2,7.38,7.11,12.33,11.3,15.82,13.31,11.1,26.47,19.32,39.12,24.43,18,7.26,39.36,14.68,61.72,14.68h1c41.23-.39,66.43-9.32,89.89-31.83a110.84,110.84,0,0,0,27.18-42.53c6.07-16.69,9.15-35.9,9.15-57.11V171.46a32.21,32.21,0,0,0-32.22-32.22Zm-91.87,258c-2.09,0-4.38-.09-6.82-.25-12.39-.85-19.88-3.61-29.35-8.42-.45-.22-.9-.46-1.35-.71a122,122,0,0,0,26.17,5.87l.4.05.39,0c5.73.37,10.12.54,14.25.54a119.3,119.3,0,0,0,14.25-.81c-4.5,2.46-9.65,3.71-17.94,3.71Z"/></g><g id="smiler"><ellipse class="cls-7" cx="807" cy="264.6" rx="46.68" ry="48.52"/><g id="g14"><g id="g24"><path id="path26" class="cls-4" d="M842.24,252.6c-.2-.45-5-11.07-15-11.07s-14.76,10.62-15,11.07a1.68,1.68,0,0,0,.48,2,1.71,1.71,0,0,0,2.06,0s4.23-3,12.42-3,12.34,2.95,12.43,3a1.69,1.69,0,0,0,1,.33,1.67,1.67,0,0,0,1.54-2.36"/></g><g id="g28"><path id="path30" class="cls-4" d="M802,252.6c-.2-.45-5-11.07-15-11.07s-14.76,10.62-15,11.07a1.68,1.68,0,0,0,2.53,2s4.23-3,12.43-3,12.33,2.95,12.43,3a1.68,1.68,0,0,0,2,0,1.69,1.69,0,0,0,.49-2"/></g><g id="g32"><path id="path34" class="cls-4" d="M807.13,266.71c-12.16,0-20.23-1.41-30.21-3.35-2.28-.44-6.72,0-6.72,6.71,0,13.43,15.43,30.21,36.93,30.21s36.93-16.78,36.93-30.21c0-6.71-4.44-7.16-6.72-6.71-10,1.94-18.05,3.35-30.21,3.35"/></g></g></g></svg>